<svg xmlns="http://www.w3.org/2000/svg" viewBox="0 0 64 64" width="64" height="64" role="img" aria-label="Parcialmente nublado">
  <!-- Sol -->
  <g fill="#f9a825">
    <circle cx="24" cy="22" r="9"/>
    <g stroke="#f9a825" stroke-width="2.5" stroke-linecap="round">
      <line x1="24" y1="6" x2="24" y2="10"/>
      <line x1="24" y1="34" x2="24" y2="38"/>
      <line x1="8" y1="22" x2="12" y2="22"/>
      <line x1="36" y1="22" x2="40" y2="22"/>
      <line x1="12.7" y1="10.7" x2="15.5" y2="13.5"/>
      <line x1="32.5" y1="30.5" x2="35.3" y2="33.3"/>
      <line x1="35.3" y1="10.7" x2="32.5" y2="13.5"/>
      <line x1="15.5" y1="30.5" x2="12.7" y2="33.3"/>
    </g>
  </g>
  <!-- Nuvem -->
  <path fill="#cfd8dc" stroke="#90a4ae" stroke-width="1.5"
    d="M46 52H24a10 10 0 0 1-1-19.9A13 13 0 0 1 48 34a9 9 0 0 1-2 18z"/>
</svg>